Coordinates
version=1
nRows=10
nColumns=63
inDegrees=yes

Units are S.I. units (second, meters, Newtons, ...)
If the header above contains a line with 'inDegrees', this indicates whether rotational values are in degrees (yes) or radians (no).

endheader
time	pelvis_tilt	pelvis_list	pelvis_rotation	pelvis_tx	pelvis_ty	pelvis_tz	hip_flexion_r	hip_adduction_r	hip_rotation_r	knee_angle_r	knee_angle_r_beta	ankle_angle_r	subtalar_angle_r	mtp_angle_r	hip_flexion_l	hip_adduction_l	hip_rotation_l	knee_angle_l	knee_angle_l_beta	ankle_angle_l	subtalar_angle_l	mtp_angle_l	L5_S1_Flex_Ext	L5_S1_Lat_Bending	L5_S1_axial_rotation	L4_L5_Flex_Ext	L4_L5_Lat_Bending	L4_L5_axial_rotation	L3_L4_Flex_Ext	L3_L4_Lat_Bending	L3_L4_axial_rotation	L2_L3_Flex_Ext	L2_L3_Lat_Bending	L2_L3_axial_rotation	L1_L2_Flex_Ext	L1_L2_Lat_Bending	L1_L2_axial_rotation	L1_T12_Flex_Ext	L1_T12_Lat_Bending	L1_T12_axial_rotation	Abs_r3	Abs_r2	Abs_r1	Abs_t1	Abs_t2	neck_flexion	neck_bending	neck_rotation	arm_flex_r	arm_add_r	arm_rot_r	elbow_flex_r	pro_sup_r	wrist_flex_r	wrist_dev_r	arm_flex_l	arm_add_l	arm_rot_l	elbow_flex_l	pro_sup_l	wrist_flex_l	wrist_dev_l
      0.00000000	      1.81373681	     -3.97173013	     88.59065445	     -0.09414323	      0.79429448	      0.65666801	      0.86868336	     -0.64073599	      3.83972849	      3.01717630	      0.05265966	     20.01486091	      1.69381439	      0.00000000	      0.54551766	     -0.20998616	     -4.28681778	      2.64941652	      0.04624104	     23.96580842	     -0.05307054	      0.00000000	      0.21448448	      0.09901594	      0.84375938	      0.39831913	      0.13169120	      0.89649434	      0.35237656	      0.24074736	      0.89649434	      0.24513431	      0.24074736	      0.73828945	      0.19917029	      0.20191331	      0.68555449	      0.12255643	      0.15337570	      0.63281953	      1.53204121	      1.12008815	      4.69273652	      0.00000000	      0.00000000	     24.33990535	      0.39560289	     -0.48276521	     12.84601256	    -11.57847580	     62.70054112	     46.79850178	     31.99086771	     -0.90928976	     16.32948980	     19.39220626	     -9.18112597	     75.79600414	     45.20855016	     76.10865569	     -4.15721570	      4.94139904
      0.01694915	      2.20332002	     -4.09570807	     88.77870574	     -0.09447151	      0.79355670	      0.65642543	      0.94286147	     -0.25882322	      4.19940512	      2.97610694	      0.05194286	     20.87851888	      1.99062097	      0.00000000	      0.64576414	     -0.62656565	     -4.21096750	      2.95971134	      0.05165671	     23.72567752	     -0.21698741	      0.00000000	      0.24880126	      0.14414218	      0.90846187	      0.46204881	      0.19170910	      0.96524074	      0.40875558	      0.35046729	      0.96524074	      0.28435495	      0.35046729	      0.79490414	      0.23103685	      0.29393473	      0.73812527	      0.14216504	      0.22327623	      0.68134640	      1.77716249	      1.63056514	      5.05259238	      0.00000000	      0.00000000	     23.72407630	      0.35832706	     -1.31410097	     12.38848005	    -11.83989444	     62.59884328	     47.01689044	     31.89889777	     -0.67256034	     15.93526898	     19.25259346	     -8.88892244	     76.11055557	     44.94456887	     75.60701448	     -4.00908607	      5.58136507
      0.03389831	      2.45092384	     -4.20512439	     88.48455842	     -0.09419718	      0.79295919	      0.65672748	      1.34768765	     -0.10220052	      1.25005550	      3.59783698	      0.06279410	     22.20360276	      6.52973482	      0.00000000	      0.62905999	     -0.80854214	     -1.90966252	      2.89515546	      0.05053000	     22.73814572	     -4.04395096	      0.00000000	      0.27028781	      0.15189729	      1.21735938	      0.50195149	      0.20202339	      1.29344434	      0.44405584	      0.36932306	      1.29344434	      0.30891193	      0.36932306	      1.06518946	      0.25098926	      0.30974894	      0.98910449	      0.15444245	      0.23528889	      0.91301953	      1.93063878	      1.71829247	      6.77058765	      0.00000000	      0.00000000	     23.57671716	     -1.32970731	     -5.39653226	     11.41362276	    -12.22408363	     61.23122947	     47.33836070	     31.97545248	     -0.20167011	     14.61749068	     20.86048608	     -8.40454651	     81.41945738	     44.69860763	     66.58925132	     -5.32982709	      5.84582785
      0.05084746	      2.46271460	     -4.21694280	     88.50900811	     -0.09428545	      0.79254453	      0.65722760	      1.35026413	     -0.12039063	      1.24772885	      3.59674421	      0.06277503	     22.21974636	      6.52767499	      0.00000000	      0.63661342	     -0.80956584	     -1.90670608	      2.89866273	      0.05059121	     22.73002792	     -4.04250389	      0.00000000	      0.26758034	      0.15496951	      1.22222626	      0.49692345	      0.20610945	      1.29861540	      0.43960774	      0.37679287	      1.29861540	      0.30581757	      0.37679287	      1.06944798	      0.24847510	      0.31601383	      0.99305884	      0.15289541	      0.24004777	      0.91666969	      1.91129961	      1.75304612	      6.79765579	      0.00000000	      0.00000000	     23.58108697	     -1.33070580	     -5.40040373	     11.37936655	    -12.20180144	     61.24954962	     47.34547060	     31.97671649	     -0.19842400	     14.61867435	     20.83638814	     -8.44301205	     81.43006603	     44.68291466	     66.58859520	     -5.33100222	      5.85031060
      0.06779661	      2.66002642	     -4.30482188	     88.48827390	     -0.09411574	      0.79196096	      0.65706048	      1.58998994	      0.03128163	     -0.20848413	      4.13680421	      0.07220085	     22.92807559	      8.32321026	      0.00000000	      0.74320850	     -1.01725991	     -1.04890974	      2.99989998	      0.05235813	     22.62330345	     -5.19568739	      0.00000000	      0.29542907	      0.16380430	      1.31992721	      0.54864133	      0.21785971	      1.40242267	      0.48536042	      0.39827376	      1.40242267	      0.33764589	      0.39827376	      1.15493631	      0.27433544	      0.33402972	      1.07244086	      0.16880817	      0.25373285	      0.98994541	      2.11022031	      1.85298695	      7.34103919	      0.00000000	      0.00000000	     23.83406955	     -2.28442107	     -7.16919909	     11.06389345	    -12.42662110	     61.23051017	     47.51902739	     32.09970688	      0.05627848	     13.59991490	     21.28940082	     -8.34412302	     83.46043911	     44.83065070	     65.56742413	     -7.09616403	      5.26575772
      0.08474576	      2.65946350	     -4.34536428	     88.46544420	     -0.09402229	      0.79157160	      0.65720552	      1.65067774	      0.00431920	     -0.38682549	      4.30374995	      0.07511461	     22.91248797	      8.36479337	      0.00000000	      0.80091090	     -1.03067554	     -0.97180540	      2.99258354	      0.05223044	     22.83459452	     -5.06685702	      0.00000000	      0.30641142	      0.16255840	      1.32436284	      0.56903665	      0.21620267	      1.40713551	      0.50340333	      0.39524450	      1.40713551	      0.35019762	      0.39524450	      1.15881748	      0.28453365	      0.33148909	      1.07604480	      0.17508349	      0.25180296	      0.99327213	      2.18866615	      1.83889314	      7.36570878	      0.00000000	      0.00000000	     24.20237899	     -2.38610483	     -6.94083317	     11.03384882	    -12.42620131	     61.25850464	     47.57122984	     32.26849002	     -0.00515181	     13.55521961	     21.25081045	     -8.40820391	     83.51806613	     44.89638259	     65.33464211	     -7.15649010	      5.14415552
      0.10169492	      2.66226557	     -4.21381367	     88.49808317	     -0.09408828	      0.79145811	      0.65733853	      1.56087987	     -0.04356067	     -1.29300585	      4.54803676	      0.07937822	     23.08020212	      9.31866483	      0.00000000	      0.72233467	     -1.04463371	     -1.66870678	      3.05434574	      0.05330839	     23.27245957	     -4.00997942	      0.00000000	      0.28776046	      0.16608902	      1.29336966	      0.53439996	      0.22089839	      1.37420526	      0.47276167	      0.40382884	      1.37420526	      0.32888143	      0.40382884	      1.13169845	      0.26721437	      0.33868872	      1.05086285	      0.16442633	      0.25727189	      0.97002724	      2.05544422	      1.87883218	      7.19333402	      0.00000000	      0.00000000	     24.68564402	     -2.43845203	     -6.30992453	     11.11711794	    -12.45740387	     61.28089380	     47.70095741	     33.00630053	     -0.13784280	     13.59675221	     21.33734652	     -8.49612193	     83.92923613	     44.96622446	     64.60150361	     -7.70228377	      4.43863069
      0.11864407	      2.69742022	     -4.26061843	     88.56203473	     -0.09434760	      0.79118924	      0.65739328	      1.69843479	     -0.08269298	     -2.48122345	      4.84489528	      0.08455937	     23.33775144	     10.76014035	      0.00000000	      0.75311278	     -1.03497094	     -0.21751699	      2.94648596	      0.05142588	     22.96902843	     -5.84777252	      0.00000000	      0.30046373	      0.17326973	      1.29081505	      0.55799119	      0.23044874	      1.37149099	      0.49363186	      0.42128802	      1.37149099	      0.34340000	      0.42128802	      1.12946317	      0.27901062	      0.35333164	      1.04878722	      0.17168497	      0.26839481	      0.96811128	      2.14618237	      1.96006185	      7.17912604	      0.00000000	      0.00000000	     25.11181830	     -2.73733065	     -6.07605066	     11.03192810	    -12.56414970	     61.06567145	     48.03806714	     31.50028814	     -0.78811361	     14.18192450	     21.44297897	     -8.44586200	     84.65595034	     45.02540000	     65.52910561	     -9.37724355	      3.51807868
      0.13559322	      2.69242426	     -4.19872280	     88.67878024	     -0.09461450	      0.79118012	      0.65738852	      1.60920663	     -0.10802273	     -2.65629873	      4.84442821	      0.08455122	     23.37382775	     10.94351354	      0.00000000	      0.78535994	     -1.05270254	     -1.33666468	      3.14801834	      0.05494328	     23.46966622	     -4.17326896	      0.00000000	      0.29282904	      0.17184328	      1.25611366	      0.54381281	      0.22855156	      1.33462076	      0.48108883	      0.41781974	      1.33462076	      0.33467431	      0.41781974	      1.09909945	      0.27192105	      0.35042281	      1.02059235	      0.16732251	      0.26618524	      0.94208524	      2.09164854	      1.94392552	      6.98612734	      0.00000000	      0.00000000	     25.54155219	     -2.87053391	     -5.94763269	     11.06301525	    -12.55451289	     60.92877202	     48.09903160	     32.75192861	     -0.88468850	     13.86253340	     21.44102006	     -8.47839161	     84.65284297	     45.00751468	     64.06600060	     -9.09840509	      3.35601311
      0.15254237	      2.75030972	     -4.12866033	     88.89229423	     -0.09513374	      0.79126239	      0.65719448	      1.42123210	     -0.05580753	     -2.60465964	      4.65046088	      0.08116585	     23.32221316	     10.82764412	      0.00000000	      0.79371258	     -1.13027429	     -2.20468729	      3.32633205	      0.05805545	     23.86101867	     -2.69903261	      0.00000000	      0.29073869	      0.17886965	      1.21432926	      0.53993082	      0.23789663	      1.29022484	      0.47765459	      0.43490366	      1.29022484	      0.33228525	      0.43490366	      1.06253810	      0.26997994	      0.36475098	      0.98664253	      0.16612809	      0.27706908	      0.91074695	      2.07671737	      2.02340920	      6.75373506	      0.00000000	      0.00000000	     25.73095793	     -3.07127617	     -5.98221431	     11.08018426	    -12.61447527	     60.89367358	     48.16750791	     33.84086678	     -0.92818325	     13.48423554	     21.51776817	     -8.47549806	     84.93839347	     45.03360553	     62.69640153	     -8.91883950	      3.20745901
